<svg width="41" height="17" viewBox="0 0 41 17" fill="none" xmlns="http://www.w3.org/2000/svg">
<path d="M0.181884 8.02854C5.87397 5.80538 9.29248 -3.35698 14.7574 2.33578C20.2223 8.02854 22.9548 10.3055 27.9643 10.0778C32.9738 9.85012 40.0327 3.92975 40.0327 3.92975" stroke="#F1F1F1"/>
<path d="M0.181884 8.02854C5.87397 5.80538 9.29248 -3.35698 14.7574 2.33578C20.2223 8.02854 22.9548 10.3055 27.9643 10.0778C32.9738 9.85012 40.0327 3.92975 40.0327 3.92975" stroke="#F1F1F1"/>
<path d="M0.181884 11.2168C5.87397 8.99361 9.29248 -0.168746 14.7574 5.52401C20.2223 11.2168 22.9548 13.4937 27.9643 13.266C32.9738 13.0383 40.0327 7.11798 40.0327 7.11798" stroke="#9292FD"/>
<path d="M0.181884 11.2168C5.87397 8.99361 9.29248 -0.168746 14.7574 5.52401C20.2223 11.2168 22.9548 13.4937 27.9643 13.266C32.9738 13.0383 40.0327 7.11798 40.0327 7.11798" stroke="#9292FD"/>
<path d="M0.181884 14.4048C5.87397 12.1816 9.29248 3.01924 14.7574 8.712C20.2223 14.4048 22.9548 16.6817 27.9643 16.454C32.9738 16.2263 40.0327 10.306 40.0327 10.306" stroke="#F1F1F1"/>
<path d="M0.181884 14.4048C5.87397 12.1816 9.29248 3.01924 14.7574 8.712C20.2223 14.4048 22.9548 16.6817 27.9643 16.454C32.9738 16.2263 40.0327 10.306 40.0327 10.306" stroke="#F1F1F1"/>
</svg>
